%TF.GenerationSoftware,KiCad,Pcbnew,(5.99.0-11535-gf6cac49802)*%
%TF.CreationDate,2021-07-27T22:48:24-05:00*%
%TF.ProjectId,MT6816CT encoder breakout,4d543638-3136-4435-9420-656e636f6465,rev?*%
%TF.SameCoordinates,Original*%
%TF.FileFunction,Legend,Top*%
%TF.FilePolarity,Positive*%
%FSLAX46Y46*%
G04 Gerber Fmt 4.6, Leading zero omitted, Abs format (unit mm)*
G04 Created by KiCad (PCBNEW (5.99.0-11535-gf6cac49802)) date 2021-07-27 22:48:24*
%MOMM*%
%LPD*%
G01*
G04 APERTURE LIST*
%ADD10C,0.150000*%
%ADD11C,0.250000*%
%ADD12C,0.200000*%
%ADD13C,0.120000*%
%ADD14C,0.050000*%
%ADD15C,0.130000*%
%ADD16C,0.400000*%
G04 APERTURE END LIST*
D10*
X140171428Y-93061904D02*
X140628571Y-93061904D01*
X140400000Y-93861904D02*
X140400000Y-93061904D01*
X139347619Y-93785714D02*
X139309523Y-93823809D01*
X139195238Y-93861904D01*
X139119047Y-93861904D01*
X139004761Y-93823809D01*
X138928571Y-93747619D01*
X138890476Y-93671428D01*
X138852380Y-93519047D01*
X138852380Y-93404761D01*
X138890476Y-93252380D01*
X138928571Y-93176190D01*
X139004761Y-93100000D01*
X139119047Y-93061904D01*
X139195238Y-93061904D01*
X139309523Y-93100000D01*
X139347619Y-93138095D01*
X137690476Y-93861904D02*
X137690476Y-93061904D01*
X137880952Y-93061904D01*
X137995238Y-93100000D01*
X138071428Y-93176190D01*
X138109523Y-93252380D01*
X138147619Y-93404761D01*
X138147619Y-93519047D01*
X138109523Y-93671428D01*
X138071428Y-93747619D01*
X137995238Y-93823809D01*
X137880952Y-93861904D01*
X137690476Y-93861904D01*
X136371428Y-93823809D02*
X136485714Y-93861904D01*
X136676190Y-93861904D01*
X136752380Y-93823809D01*
X136790476Y-93785714D01*
X136828571Y-93709523D01*
X136828571Y-93633333D01*
X136790476Y-93557142D01*
X136752380Y-93519047D01*
X136676190Y-93480952D01*
X136523809Y-93442857D01*
X136447619Y-93404761D01*
X136409523Y-93366666D01*
X136371428Y-93290476D01*
X136371428Y-93214285D01*
X136409523Y-93138095D01*
X136447619Y-93100000D01*
X136523809Y-93061904D01*
X136714285Y-93061904D01*
X136828571Y-93100000D01*
X141219047Y-93371428D02*
X141980952Y-93371428D01*
X141600000Y-93752380D02*
X141600000Y-92990476D01*
X135019047Y-93271428D02*
X135780952Y-93271428D01*
X142000000Y-72600000D02*
X138500000Y-72600000D01*
X144000000Y-74600000D02*
X142000000Y-72600000D01*
D11*
X144600595Y-88547380D02*
X144600595Y-87547380D01*
X144838690Y-87547380D01*
X144981547Y-87595000D01*
X145076785Y-87690238D01*
X145124404Y-87785476D01*
X145172023Y-87975952D01*
X145172023Y-88118809D01*
X145124404Y-88309285D01*
X145076785Y-88404523D01*
X144981547Y-88499761D01*
X144838690Y-88547380D01*
X144600595Y-88547380D01*
X145552976Y-88261666D02*
X146029166Y-88261666D01*
X145457738Y-88547380D02*
X145791071Y-87547380D01*
X146124404Y-88547380D01*
X146314880Y-87547380D02*
X146886309Y-87547380D01*
X146600595Y-88547380D02*
X146600595Y-87547380D01*
X147172023Y-88261666D02*
X147648214Y-88261666D01*
X147076785Y-88547380D02*
X147410119Y-87547380D01*
X147743452Y-88547380D01*
X144791071Y-89157380D02*
X144981547Y-89157380D01*
X145076785Y-89205000D01*
X145172023Y-89300238D01*
X145219642Y-89490714D01*
X145219642Y-89824047D01*
X145172023Y-90014523D01*
X145076785Y-90109761D01*
X144981547Y-90157380D01*
X144791071Y-90157380D01*
X144695833Y-90109761D01*
X144600595Y-90014523D01*
X144552976Y-89824047D01*
X144552976Y-89490714D01*
X144600595Y-89300238D01*
X144695833Y-89205000D01*
X144791071Y-89157380D01*
X145648214Y-89157380D02*
X145648214Y-89966904D01*
X145695833Y-90062142D01*
X145743452Y-90109761D01*
X145838690Y-90157380D01*
X146029166Y-90157380D01*
X146124404Y-90109761D01*
X146172023Y-90062142D01*
X146219642Y-89966904D01*
X146219642Y-89157380D01*
X146552976Y-89157380D02*
X147124404Y-89157380D01*
X146838690Y-90157380D02*
X146838690Y-89157380D01*
D12*
X141940476Y-84952380D02*
X141750000Y-84952380D01*
X141654761Y-85000000D01*
X141607142Y-85047619D01*
X141511904Y-85190476D01*
X141464285Y-85380952D01*
X141464285Y-85761904D01*
X141511904Y-85857142D01*
X141559523Y-85904761D01*
X141654761Y-85952380D01*
X141845238Y-85952380D01*
X141940476Y-85904761D01*
X141988095Y-85857142D01*
X142035714Y-85761904D01*
X142035714Y-85523809D01*
X141988095Y-85428571D01*
X141940476Y-85380952D01*
X141845238Y-85333333D01*
X141654761Y-85333333D01*
X141559523Y-85380952D01*
X141511904Y-85428571D01*
X141464285Y-85523809D01*
X129763455Y-79337052D02*
X128997410Y-78694264D01*
X129758847Y-78898050D01*
X129425935Y-78183568D01*
X130191980Y-78826356D01*
X129640198Y-77928220D02*
X130007505Y-77490480D01*
X130589896Y-78352138D02*
X129823852Y-77709350D01*
X130497248Y-76906827D02*
X130374812Y-77052741D01*
X130350073Y-77156306D01*
X130355942Y-77223393D01*
X130404159Y-77388177D01*
X130519464Y-77547091D01*
X130811290Y-77791962D01*
X130914856Y-77816702D01*
X130981943Y-77810832D01*
X131079639Y-77768485D01*
X131202075Y-77622572D01*
X131226814Y-77519006D01*
X131220945Y-77451919D01*
X131178597Y-77354223D01*
X130996206Y-77201178D01*
X130892640Y-77176438D01*
X130825553Y-77182308D01*
X130727857Y-77224655D01*
X130605421Y-77370569D01*
X130580681Y-77474134D01*
X130586551Y-77541221D01*
X130628898Y-77638918D01*
X131254078Y-76671611D02*
X131156382Y-76713959D01*
X131089295Y-76719828D01*
X130985729Y-76695089D01*
X130949251Y-76664480D01*
X130906903Y-76566784D01*
X130901034Y-76499697D01*
X130925773Y-76396131D01*
X131048209Y-76250218D01*
X131145905Y-76207870D01*
X131212992Y-76202001D01*
X131316558Y-76226740D01*
X131353036Y-76257349D01*
X131395384Y-76355045D01*
X131401253Y-76422133D01*
X131376514Y-76525698D01*
X131254078Y-76671611D01*
X131229338Y-76775177D01*
X131235208Y-76842264D01*
X131277555Y-76939960D01*
X131423469Y-77062396D01*
X131527034Y-77087136D01*
X131594121Y-77081266D01*
X131691818Y-77038919D01*
X131814253Y-76893005D01*
X131838993Y-76789440D01*
X131833124Y-76722353D01*
X131790776Y-76624656D01*
X131644863Y-76502221D01*
X131541297Y-76477481D01*
X131474210Y-76483350D01*
X131376514Y-76525698D01*
X132548868Y-76017526D02*
X132181561Y-76455266D01*
X132365214Y-76236396D02*
X131599170Y-75593608D01*
X131647387Y-75758392D01*
X131659126Y-75892566D01*
X131634386Y-75996132D01*
X132333784Y-74718129D02*
X132211348Y-74864042D01*
X132186609Y-74967608D01*
X132192478Y-75034695D01*
X132240695Y-75199478D01*
X132356000Y-75358392D01*
X132647826Y-75603264D01*
X132751392Y-75628003D01*
X132818479Y-75622134D01*
X132916175Y-75579786D01*
X133038611Y-75433873D01*
X133063350Y-75330308D01*
X133057481Y-75263220D01*
X133015133Y-75165524D01*
X132832742Y-75012479D01*
X132729176Y-74987740D01*
X132662089Y-74993609D01*
X132564393Y-75035957D01*
X132441957Y-75181870D01*
X132417217Y-75285436D01*
X132423087Y-75352523D01*
X132465434Y-75450219D01*
X133730877Y-74460698D02*
X133736747Y-74527785D01*
X133681398Y-74667829D01*
X133620180Y-74740785D01*
X133491875Y-74819611D01*
X133357701Y-74831350D01*
X133254135Y-74806610D01*
X133077613Y-74720653D01*
X132968178Y-74628826D01*
X132852874Y-74469912D01*
X132810526Y-74372216D01*
X132798788Y-74238042D01*
X132854136Y-74097998D01*
X132915354Y-74025041D01*
X133043659Y-73946215D01*
X133110746Y-73940346D01*
X133221443Y-73660258D02*
X133588750Y-73222518D01*
X134171141Y-74084176D02*
X133405097Y-73441388D01*
X131665576Y-79130415D02*
X131971665Y-78765632D01*
X131823228Y-79387026D02*
X131271446Y-78488890D01*
X132251753Y-78876329D01*
X132466016Y-78620981D02*
X131699971Y-77978194D01*
X132833323Y-78183242D01*
X132067278Y-77540454D01*
X132746544Y-76805018D02*
X132648848Y-76847366D01*
X132557021Y-76956801D01*
X132501673Y-77096845D01*
X132513412Y-77231019D01*
X132555759Y-77328716D01*
X132671064Y-77487630D01*
X132780498Y-77579456D01*
X132957021Y-77665414D01*
X133060586Y-77690153D01*
X133194761Y-77678415D01*
X133323066Y-77599589D01*
X133384284Y-77526632D01*
X133439632Y-77386588D01*
X133433763Y-77319501D01*
X133178415Y-77105238D01*
X133055979Y-77251152D01*
X134088289Y-76687631D02*
X133782200Y-77052414D01*
X133016155Y-76409626D01*
X133901290Y-76095585D02*
X134115553Y-75840236D01*
X134608641Y-76067500D02*
X134302552Y-76432283D01*
X133536507Y-75789495D01*
X133842597Y-75424712D01*
X133282782Y-79337410D02*
X133497044Y-79082062D01*
X133990132Y-79309325D02*
X133684043Y-79674108D01*
X132917999Y-79031321D01*
X133224088Y-78666538D01*
X134265613Y-78981021D02*
X133499568Y-78338233D01*
X134632920Y-78543281D01*
X133866876Y-77900493D01*
X135233360Y-77679540D02*
X135239229Y-77746627D01*
X135183881Y-77886671D01*
X135122663Y-77959628D01*
X134994358Y-78038454D01*
X134860183Y-78050193D01*
X134756618Y-78025453D01*
X134580096Y-77939496D01*
X134470661Y-77847669D01*
X134355357Y-77688755D01*
X134313009Y-77591059D01*
X134301270Y-77456884D01*
X134356619Y-77316840D01*
X134417836Y-77243884D01*
X134546142Y-77165058D01*
X134613229Y-77159188D01*
D11*
X142490476Y-74942380D02*
X143061904Y-74942380D01*
X142776190Y-75942380D02*
X142776190Y-74942380D01*
X143395238Y-75418571D02*
X143728571Y-75418571D01*
X143871428Y-75942380D02*
X143395238Y-75942380D01*
X143395238Y-74942380D01*
X143871428Y-74942380D01*
X144300000Y-75942380D02*
X144300000Y-74942380D01*
X144633333Y-75656666D01*
X144966666Y-74942380D01*
X144966666Y-75942380D01*
X145442857Y-75942380D02*
X145442857Y-74942380D01*
X145823809Y-74942380D01*
X145919047Y-74990000D01*
X145966666Y-75037619D01*
X146014285Y-75132857D01*
X146014285Y-75275714D01*
X145966666Y-75370952D01*
X145919047Y-75418571D01*
X145823809Y-75466190D01*
X145442857Y-75466190D01*
X143038095Y-77552380D02*
X142466666Y-77552380D01*
X142752380Y-77552380D02*
X142752380Y-76552380D01*
X142657142Y-76695238D01*
X142561904Y-76790476D01*
X142466666Y-76838095D01*
X143657142Y-76552380D02*
X143752380Y-76552380D01*
X143847619Y-76600000D01*
X143895238Y-76647619D01*
X143942857Y-76742857D01*
X143990476Y-76933333D01*
X143990476Y-77171428D01*
X143942857Y-77361904D01*
X143895238Y-77457142D01*
X143847619Y-77504761D01*
X143752380Y-77552380D01*
X143657142Y-77552380D01*
X143561904Y-77504761D01*
X143514285Y-77457142D01*
X143466666Y-77361904D01*
X143419047Y-77171428D01*
X143419047Y-76933333D01*
X143466666Y-76742857D01*
X143514285Y-76647619D01*
X143561904Y-76600000D01*
X143657142Y-76552380D01*
X144419047Y-77552380D02*
X144419047Y-76552380D01*
X144990476Y-77552380D02*
X144561904Y-76980952D01*
X144990476Y-76552380D02*
X144419047Y-77123809D01*
X145371428Y-77552380D02*
X145609523Y-77552380D01*
X145609523Y-77361904D01*
X145514285Y-77314285D01*
X145419047Y-77219047D01*
X145371428Y-77076190D01*
X145371428Y-76838095D01*
X145419047Y-76695238D01*
X145514285Y-76600000D01*
X145657142Y-76552380D01*
X145847619Y-76552380D01*
X145990476Y-76600000D01*
X146085714Y-76695238D01*
X146133333Y-76838095D01*
X146133333Y-77076190D01*
X146085714Y-77219047D01*
X145990476Y-77314285D01*
X145895238Y-77361904D01*
X145895238Y-77552380D01*
X146133333Y-77552380D01*
X143133333Y-79162380D02*
X143133333Y-78162380D01*
X143704761Y-79162380D01*
X143704761Y-78162380D01*
X144038095Y-78162380D02*
X144609523Y-78162380D01*
X144323809Y-79162380D02*
X144323809Y-78162380D01*
X145514285Y-79067142D02*
X145466666Y-79114761D01*
X145323809Y-79162380D01*
X145228571Y-79162380D01*
X145085714Y-79114761D01*
X144990476Y-79019523D01*
X144942857Y-78924285D01*
X144895238Y-78733809D01*
X144895238Y-78590952D01*
X144942857Y-78400476D01*
X144990476Y-78305238D01*
X145085714Y-78210000D01*
X145228571Y-78162380D01*
X145323809Y-78162380D01*
X145466666Y-78210000D01*
X145514285Y-78257619D01*
D12*
X135660714Y-85952380D02*
X135089285Y-85952380D01*
X135375000Y-85952380D02*
X135375000Y-84952380D01*
X135279761Y-85095238D01*
X135184523Y-85190476D01*
X135089285Y-85238095D01*
X142407142Y-81600000D02*
X141507142Y-81600000D01*
X141507142Y-81257142D01*
X141550000Y-81171428D01*
X141592857Y-81128571D01*
X141678571Y-81085714D01*
X141807142Y-81085714D01*
X141892857Y-81128571D01*
X141935714Y-81171428D01*
X141978571Y-81257142D01*
X141978571Y-81600000D01*
X141507142Y-80785714D02*
X142407142Y-80571428D01*
X141764285Y-80400000D01*
X142407142Y-80228571D01*
X141507142Y-80014285D01*
X142407142Y-79157142D02*
X141978571Y-79457142D01*
X142407142Y-79671428D02*
X141507142Y-79671428D01*
X141507142Y-79328571D01*
X141550000Y-79242857D01*
X141592857Y-79200000D01*
X141678571Y-79157142D01*
X141807142Y-79157142D01*
X141892857Y-79200000D01*
X141935714Y-79242857D01*
X141978571Y-79328571D01*
X141978571Y-79671428D01*
D10*
%TO.C,J2*%
X131416666Y-87452380D02*
X131416666Y-88166666D01*
X131369047Y-88309523D01*
X131273809Y-88404761D01*
X131130952Y-88452380D01*
X131035714Y-88452380D01*
X131845238Y-87547619D02*
X131892857Y-87500000D01*
X131988095Y-87452380D01*
X132226190Y-87452380D01*
X132321428Y-87500000D01*
X132369047Y-87547619D01*
X132416666Y-87642857D01*
X132416666Y-87738095D01*
X132369047Y-87880952D01*
X131797619Y-88452380D01*
X132416666Y-88452380D01*
%TO.C,J1*%
X138266666Y-71852380D02*
X138266666Y-72566666D01*
X138219047Y-72709523D01*
X138123809Y-72804761D01*
X137980952Y-72852380D01*
X137885714Y-72852380D01*
X139266666Y-72852380D02*
X138695238Y-72852380D01*
X138980952Y-72852380D02*
X138980952Y-71852380D01*
X138885714Y-71995238D01*
X138790476Y-72090476D01*
X138695238Y-72138095D01*
D13*
%TO.C,J3*%
X134285000Y-91460000D02*
X142715000Y-91460000D01*
X143985000Y-88640000D02*
X143985000Y-87190000D01*
X143985000Y-87190000D02*
X142185000Y-87190000D01*
X134815000Y-87190000D02*
X134815000Y-86200000D01*
X133015000Y-88640000D02*
X133015000Y-87190000D01*
X133015000Y-87190000D02*
X134815000Y-87190000D01*
D14*
%TO.C,R1*%
X135075000Y-80875000D02*
X135925000Y-80875000D01*
X135925000Y-80875000D02*
X135925000Y-80125000D01*
X135925000Y-80125000D02*
X135075000Y-80125000D01*
X135075000Y-80125000D02*
X135075000Y-80750000D01*
X135075000Y-80750000D02*
X135075000Y-80875000D01*
G36*
X135925000Y-80875000D02*
G01*
X135075000Y-80875000D01*
X135075000Y-80125000D01*
X135925000Y-80125000D01*
X135925000Y-80875000D01*
G37*
X135925000Y-80875000D02*
X135075000Y-80875000D01*
X135075000Y-80125000D01*
X135925000Y-80125000D01*
X135925000Y-80875000D01*
D15*
X134890000Y-80850000D02*
X134890000Y-80150000D01*
X136110000Y-80150000D02*
X136110000Y-80850000D01*
%TO.C,R2*%
X137650000Y-84390000D02*
X138350000Y-84390000D01*
X138350000Y-85610000D02*
X137650000Y-85610000D01*
D14*
X138375000Y-85425000D02*
X138375000Y-84575000D01*
X138375000Y-84575000D02*
X137625000Y-84575000D01*
X137625000Y-84575000D02*
X137625000Y-85425000D01*
X137625000Y-85425000D02*
X138250000Y-85425000D01*
X138250000Y-85425000D02*
X138375000Y-85425000D01*
G36*
X138375000Y-85425000D02*
G01*
X137625000Y-85425000D01*
X137625000Y-84575000D01*
X138375000Y-84575000D01*
X138375000Y-85425000D01*
G37*
X138375000Y-85425000D02*
X137625000Y-85425000D01*
X137625000Y-84575000D01*
X138375000Y-84575000D01*
X138375000Y-85425000D01*
D13*
%TO.C,J2*%
X143985000Y-91860000D02*
X142185000Y-91860000D01*
X143985000Y-90260000D02*
X143985000Y-91860000D01*
X134815000Y-91860000D02*
X134815000Y-92800000D01*
X134285000Y-87390000D02*
X142715000Y-87390000D01*
X133015000Y-91860000D02*
X134815000Y-91860000D01*
X133015000Y-90260000D02*
X133015000Y-91860000D01*
%TO.C,J1*%
X135515000Y-76010000D02*
X135515000Y-77460000D01*
X140215000Y-73190000D02*
X136785000Y-73190000D01*
X141485000Y-77460000D02*
X139685000Y-77460000D01*
X139685000Y-77460000D02*
X139685000Y-78450000D01*
X135515000Y-77460000D02*
X137315000Y-77460000D01*
X141485000Y-76010000D02*
X141485000Y-77460000D01*
D15*
%TO.C,D1*%
X140200000Y-80800000D02*
X140500000Y-80200000D01*
X140800000Y-80800000D02*
X140200000Y-80800000D01*
X139890000Y-80850000D02*
X139890000Y-80150000D01*
X140800000Y-80200000D02*
X140200000Y-80200000D01*
X140500000Y-80200000D02*
X140800000Y-80800000D01*
X141110000Y-80150000D02*
X141110000Y-80850000D01*
D13*
%TO.C,D2*%
X141850000Y-82500000D02*
X141850000Y-85050000D01*
X141850000Y-82500000D02*
X140150000Y-82500000D01*
X140150000Y-82500000D02*
X140150000Y-85050000D01*
D15*
%TO.C,C1*%
X137650000Y-80390000D02*
X138350000Y-80390000D01*
X138350000Y-81610000D02*
X137650000Y-81610000D01*
D16*
X138200000Y-81000000D02*
G75*
G03*
X138200000Y-81000000I-200000J0D01*
G01*
D15*
%TO.C,C2*%
X137650000Y-82390000D02*
X138350000Y-82390000D01*
X138350000Y-83610000D02*
X137650000Y-83610000D01*
D16*
X138200000Y-83000000D02*
G75*
G03*
X138200000Y-83000000I-200000J0D01*
G01*
%TD*%
M02*
