%TF.GenerationSoftware,KiCad,Pcbnew,(5.99.0-11535-gf6cac49802)*%
%TF.CreationDate,2021-07-27T22:48:24-05:00*%
%TF.ProjectId,MT6816CT encoder breakout,4d543638-3136-4435-9420-656e636f6465,rev?*%
%TF.SameCoordinates,Original*%
%TF.FileFunction,Copper,L2,Bot*%
%TF.FilePolarity,Positive*%
%FSLAX46Y46*%
G04 Gerber Fmt 4.6, Leading zero omitted, Abs format (unit mm)*
G04 Created by KiCad (PCBNEW (5.99.0-11535-gf6cac49802)) date 2021-07-27 22:48:24*
%MOMM*%
%LPD*%
G01*
G04 APERTURE LIST*
G04 Aperture macros list*
%AMRoundRect*
0 Rectangle with rounded corners*
0 $1 Rounding radius*
0 $2 $3 $4 $5 $6 $7 $8 $9 X,Y pos of 4 corners*
0 Add a 4 corners polygon primitive as box body*
4,1,4,$2,$3,$4,$5,$6,$7,$8,$9,$2,$3,0*
0 Add four circle primitives for the rounded corners*
1,1,$1+$1,$2,$3*
1,1,$1+$1,$4,$5*
1,1,$1+$1,$6,$7*
1,1,$1+$1,$8,$9*
0 Add four rect primitives between the rounded corners*
20,1,$1+$1,$2,$3,$4,$5,0*
20,1,$1+$1,$4,$5,$6,$7,0*
20,1,$1+$1,$6,$7,$8,$9,0*
20,1,$1+$1,$8,$9,$2,$3,0*%
G04 Aperture macros list end*
%TA.AperFunction,SMDPad,CuDef*%
%ADD10RoundRect,0.150000X-0.150000X0.675000X-0.150000X-0.675000X0.150000X-0.675000X0.150000X0.675000X0*%
%TD*%
%TA.AperFunction,ViaPad*%
%ADD11C,0.800000*%
%TD*%
%TA.AperFunction,Conductor*%
%ADD12C,0.250000*%
%TD*%
G04 APERTURE END LIST*
D10*
%TO.P,U2,8,GND*%
%TO.N,GND*%
X136595000Y-85625000D03*
%TO.P,U2,7,SCK/Z/W*%
%TO.N,/H1{slash}SCK*%
X137865000Y-85625000D03*
%TO.P,U2,6,MISO/B/V*%
%TO.N,unconnected-(U2-Pad6)*%
X139135000Y-85625000D03*
%TO.P,U2,5,MOSI/SDAT/A/U*%
%TO.N,/SDAT_R*%
X140405000Y-85625000D03*
%TO.P,U2,4,VDD*%
%TO.N,+5V*%
X140405000Y-80375000D03*
%TO.P,U2,3,PWM_OUT*%
%TO.N,unconnected-(U2-Pad3)*%
X139135000Y-80375000D03*
%TO.P,U2,2,HVPP/SPI_EN*%
%TO.N,+5V*%
X137865000Y-80375000D03*
%TO.P,U2,1,CSN*%
%TO.N,/H3{slash}CS*%
X136595000Y-80375000D03*
%TD*%
D11*
%TO.N,/SDAT_R*%
X139800000Y-84200000D03*
%TO.N,/H1{slash}SCK*%
X139100000Y-88600000D03*
%TO.N,/Temp*%
X136000000Y-76700000D03*
%TO.N,+5V*%
X139000000Y-82000000D03*
%TO.N,GND*%
X136500000Y-84000000D03*
%TO.N,/H3{slash}CS*%
X135500000Y-83300000D03*
%TO.N,GND*%
X141000000Y-84100000D03*
X134700000Y-85600000D03*
%TO.N,/Temp*%
X140400000Y-90300000D03*
%TD*%
D12*
%TO.N,/Temp*%
X134200000Y-90400000D02*
X140300000Y-90400000D01*
X133375000Y-89575000D02*
X134200000Y-90400000D01*
X134600000Y-78100000D02*
X134600000Y-84400000D01*
X133375000Y-85625000D02*
X133375000Y-89575000D01*
X136000000Y-76700000D02*
X134600000Y-78100000D01*
X134600000Y-84400000D02*
X133375000Y-85625000D01*
X140300000Y-90400000D02*
X140400000Y-90300000D01*
%TO.N,/H1{slash}SCK*%
X137865000Y-87365000D02*
X139100000Y-88600000D01*
X137865000Y-85625000D02*
X137865000Y-87365000D01*
%TO.N,GND*%
X141000000Y-83700000D02*
X141000000Y-84100000D01*
X138500000Y-84000000D02*
X139200000Y-83300000D01*
X140600000Y-83300000D02*
X141000000Y-83700000D01*
X136500000Y-84000000D02*
X138500000Y-84000000D01*
X139200000Y-83300000D02*
X140600000Y-83300000D01*
%TO.N,/SDAT_R*%
X140405000Y-84905000D02*
X139800000Y-84300000D01*
X140405000Y-85625000D02*
X140405000Y-84905000D01*
X139800000Y-84300000D02*
X139800000Y-84200000D01*
%TO.N,GND*%
X136570000Y-85600000D02*
X136595000Y-85625000D01*
X134700000Y-85600000D02*
X136570000Y-85600000D01*
%TO.N,/H3{slash}CS*%
X136595000Y-80375000D02*
X136595000Y-82205000D01*
X136595000Y-82205000D02*
X135500000Y-83300000D01*
%TO.N,+5V*%
X137865000Y-80965000D02*
X138900000Y-82000000D01*
X138900000Y-82000000D02*
X139000000Y-82000000D01*
X137865000Y-80375000D02*
X137865000Y-80965000D01*
X139152500Y-82000000D02*
X139000000Y-82000000D01*
X140405000Y-80747500D02*
X139152500Y-82000000D01*
X140405000Y-80375000D02*
X140405000Y-80747500D01*
%TO.N,GND*%
X136595000Y-84095000D02*
X136500000Y-84000000D01*
X136595000Y-85625000D02*
X136595000Y-84095000D01*
%TD*%
%TA.AperFunction,Conductor*%
%TO.N,GND*%
G36*
X138679531Y-71801543D02*
G01*
X139316640Y-71829916D01*
X139323866Y-71830447D01*
X139958287Y-71895449D01*
X139965468Y-71896394D01*
X140220218Y-71937426D01*
X140595093Y-71997807D01*
X140602220Y-71999167D01*
X141224946Y-72136651D01*
X141231983Y-72138419D01*
X141641156Y-72253817D01*
X141845770Y-72311525D01*
X141852676Y-72313689D01*
X142420842Y-72509879D01*
X142455478Y-72521839D01*
X142462265Y-72524403D01*
X143052101Y-72766914D01*
X143058729Y-72769866D01*
X143633611Y-73045920D01*
X143640042Y-73049239D01*
X144198098Y-73357937D01*
X144204302Y-73361606D01*
X144743690Y-73701935D01*
X144749695Y-73705970D01*
X145268554Y-74076753D01*
X145274334Y-74081140D01*
X145771002Y-74481185D01*
X145776519Y-74485898D01*
X146249303Y-74913840D01*
X146254541Y-74918862D01*
X146701934Y-75373340D01*
X146706873Y-75378655D01*
X147127357Y-75858125D01*
X147131982Y-75863716D01*
X147307832Y-76089198D01*
X147524132Y-76366547D01*
X147524163Y-76366587D01*
X147528453Y-76372427D01*
X147891059Y-76897076D01*
X147894991Y-76903130D01*
X148058465Y-77171470D01*
X148226782Y-77447759D01*
X148230377Y-77454061D01*
X148521463Y-78000362D01*
X148530270Y-78016891D01*
X148533491Y-78023380D01*
X148692576Y-78368463D01*
X148800480Y-78602524D01*
X148803323Y-78609188D01*
X148957346Y-79001201D01*
X149036537Y-79202755D01*
X149038995Y-79209582D01*
X149237649Y-79815575D01*
X149239710Y-79822532D01*
X149403154Y-80438963D01*
X149404811Y-80446028D01*
X149532499Y-81070847D01*
X149533746Y-81077995D01*
X149625254Y-81709112D01*
X149626088Y-81716320D01*
X149681114Y-82351662D01*
X149681532Y-82358906D01*
X149699943Y-82998015D01*
X149699995Y-83001975D01*
X149699851Y-83056681D01*
X149699778Y-83060636D01*
X149678022Y-83699633D01*
X149677566Y-83706875D01*
X149619215Y-84341905D01*
X149618344Y-84349109D01*
X149523530Y-84979762D01*
X149522245Y-84986903D01*
X149391288Y-85611036D01*
X149389594Y-85618092D01*
X149222927Y-86233651D01*
X149220830Y-86240597D01*
X149019002Y-86845553D01*
X149016508Y-86852367D01*
X148781339Y-87441824D01*
X148780195Y-87444691D01*
X148777325Y-87451323D01*
X148507293Y-88029092D01*
X148504042Y-88035557D01*
X148239554Y-88525740D01*
X148201209Y-88596805D01*
X148197581Y-88603089D01*
X147862941Y-89145975D01*
X147858957Y-89152039D01*
X147493641Y-89674735D01*
X147489315Y-89680561D01*
X147094496Y-90181387D01*
X147089842Y-90186952D01*
X146666845Y-90664225D01*
X146661895Y-90669495D01*
X146518670Y-90813472D01*
X146212136Y-91121614D01*
X146206873Y-91126609D01*
X145731826Y-91552098D01*
X145726291Y-91556775D01*
X145227546Y-91954206D01*
X145221743Y-91958563D01*
X144700949Y-92326623D01*
X144694906Y-92330638D01*
X144153789Y-92668109D01*
X144147524Y-92671770D01*
X143587871Y-92977537D01*
X143581413Y-92980827D01*
X143005082Y-93253873D01*
X142998466Y-93256777D01*
X142514136Y-93452951D01*
X142407367Y-93496197D01*
X142400575Y-93498723D01*
X141796674Y-93703720D01*
X141789775Y-93705843D01*
X141175064Y-93875740D01*
X141168040Y-93877465D01*
X140544582Y-94011692D01*
X140537449Y-94013014D01*
X139907302Y-94111129D01*
X139900120Y-94112036D01*
X139504875Y-94150442D01*
X139265392Y-94173712D01*
X139258153Y-94174206D01*
X138620911Y-94199243D01*
X138613655Y-94199319D01*
X137976034Y-94187633D01*
X137968786Y-94187291D01*
X137502516Y-94151823D01*
X137332901Y-94138920D01*
X137325698Y-94138164D01*
X137124414Y-94111128D01*
X136693629Y-94053266D01*
X136686468Y-94052093D01*
X136260937Y-93969764D01*
X136060348Y-93930955D01*
X136053282Y-93929376D01*
X135435167Y-93772394D01*
X135428205Y-93770411D01*
X134820153Y-93578109D01*
X134813304Y-93575724D01*
X134662602Y-93518327D01*
X134217336Y-93348742D01*
X134210632Y-93345965D01*
X133628726Y-93085056D01*
X133622193Y-93081898D01*
X133056252Y-92787915D01*
X133049932Y-92784398D01*
X132501855Y-92458326D01*
X132495729Y-92454438D01*
X132215086Y-92264786D01*
X131967347Y-92097370D01*
X131961459Y-92093139D01*
X131782378Y-91956468D01*
X131454497Y-91706237D01*
X131448862Y-91701674D01*
X130965010Y-91286229D01*
X130959643Y-91281345D01*
X130551348Y-90887747D01*
X130500519Y-90838748D01*
X130495446Y-90833568D01*
X130485155Y-90822435D01*
X130062545Y-90365258D01*
X130057783Y-90359800D01*
X129652562Y-89867351D01*
X129648123Y-89861628D01*
X129271929Y-89346680D01*
X129267819Y-89340701D01*
X128921888Y-88804951D01*
X128918129Y-88798744D01*
X128892528Y-88753586D01*
X128603606Y-88243955D01*
X128600216Y-88237552D01*
X128500605Y-88035559D01*
X128415165Y-87862304D01*
X128318159Y-87665595D01*
X128315139Y-87658998D01*
X128066473Y-87071756D01*
X128063837Y-87064995D01*
X127986709Y-86848989D01*
X127849391Y-86464419D01*
X127847150Y-86457523D01*
X127667621Y-85845564D01*
X127665780Y-85838546D01*
X127600662Y-85557607D01*
X132949500Y-85557607D01*
X132949500Y-89642393D01*
X132956914Y-89665210D01*
X132961528Y-89684429D01*
X132965281Y-89708126D01*
X132969784Y-89716963D01*
X132969784Y-89716964D01*
X132976172Y-89729502D01*
X132983736Y-89747763D01*
X132988085Y-89761147D01*
X132988087Y-89761150D01*
X132991151Y-89770581D01*
X132996980Y-89778604D01*
X133005253Y-89789991D01*
X133015577Y-89806837D01*
X133026472Y-89828220D01*
X133050446Y-89852194D01*
X133851471Y-90653218D01*
X133851472Y-90653220D01*
X133946780Y-90748528D01*
X133968159Y-90759421D01*
X133985012Y-90769749D01*
X133995865Y-90777634D01*
X134004419Y-90783849D01*
X134013850Y-90786913D01*
X134013851Y-90786914D01*
X134027237Y-90791264D01*
X134045498Y-90798828D01*
X134058036Y-90805216D01*
X134066874Y-90809719D01*
X134090571Y-90813472D01*
X134109790Y-90818086D01*
X134132607Y-90825500D01*
X139887878Y-90825500D01*
X139955999Y-90845502D01*
X139972670Y-90858300D01*
X139991233Y-90875191D01*
X140020643Y-90891159D01*
X140133558Y-90952467D01*
X140133560Y-90952468D01*
X140140235Y-90956092D01*
X140147584Y-90958020D01*
X140296883Y-90997188D01*
X140296885Y-90997188D01*
X140304233Y-90999116D01*
X140390609Y-91000473D01*
X140466161Y-91001660D01*
X140466164Y-91001660D01*
X140473760Y-91001779D01*
X140481165Y-91000083D01*
X140481166Y-91000083D01*
X140541586Y-90986245D01*
X140639029Y-90963928D01*
X140790498Y-90887747D01*
X140899879Y-90794326D01*
X140913651Y-90782564D01*
X140913652Y-90782563D01*
X140919423Y-90777634D01*
X141018361Y-90639947D01*
X141081601Y-90482634D01*
X141105490Y-90314778D01*
X141105645Y-90300000D01*
X141085276Y-90131680D01*
X141025345Y-89973077D01*
X140929312Y-89833349D01*
X140923641Y-89828296D01*
X140808392Y-89725612D01*
X140808388Y-89725610D01*
X140802721Y-89720560D01*
X140795930Y-89716964D01*
X140715989Y-89674638D01*
X140652881Y-89641224D01*
X140488441Y-89599919D01*
X140480843Y-89599879D01*
X140480841Y-89599879D01*
X140403668Y-89599475D01*
X140318895Y-89599031D01*
X140311508Y-89600805D01*
X140311504Y-89600805D01*
X140179598Y-89632474D01*
X140154032Y-89638612D01*
X140147288Y-89642093D01*
X140147285Y-89642094D01*
X140019351Y-89708126D01*
X140003369Y-89716375D01*
X139875604Y-89827831D01*
X139851851Y-89861628D01*
X139810158Y-89920951D01*
X139754623Y-89965182D01*
X139707071Y-89974500D01*
X134428438Y-89974500D01*
X134360317Y-89954498D01*
X134339342Y-89937595D01*
X133837404Y-89435656D01*
X133803379Y-89373344D01*
X133800500Y-89346561D01*
X133800500Y-85853438D01*
X133819553Y-85788548D01*
X135995001Y-85788548D01*
X135995001Y-86350804D01*
X135995280Y-86356725D01*
X135997256Y-86377631D01*
X136000521Y-86392516D01*
X136039694Y-86504064D01*
X136048406Y-86520520D01*
X136117616Y-86614221D01*
X136130779Y-86627384D01*
X136224480Y-86696594D01*
X136240936Y-86705306D01*
X136352479Y-86744477D01*
X136367373Y-86747745D01*
X136388281Y-86749721D01*
X136394192Y-86750000D01*
X136426885Y-86750000D01*
X136442124Y-86745525D01*
X136443329Y-86744135D01*
X136445000Y-86736452D01*
X136445000Y-85793115D01*
X136440525Y-85777876D01*
X136439135Y-85776671D01*
X136431452Y-85775000D01*
X136013116Y-85775000D01*
X135997877Y-85779475D01*
X135996672Y-85780865D01*
X135995001Y-85788548D01*
X133819553Y-85788548D01*
X133820502Y-85785317D01*
X133837405Y-85764343D01*
X134702556Y-84899192D01*
X135995000Y-84899192D01*
X135995000Y-85456885D01*
X135999475Y-85472124D01*
X136000865Y-85473329D01*
X136008548Y-85475000D01*
X136426885Y-85475000D01*
X136442124Y-85470525D01*
X136443329Y-85469135D01*
X136445000Y-85461452D01*
X136445000Y-84518116D01*
X136443659Y-84513548D01*
X136745000Y-84513548D01*
X136745000Y-86731884D01*
X136749475Y-86747123D01*
X136750865Y-86748328D01*
X136758548Y-86749999D01*
X136795804Y-86749999D01*
X136801725Y-86749720D01*
X136822631Y-86747744D01*
X136837516Y-86744479D01*
X136949064Y-86705306D01*
X136965520Y-86696594D01*
X137059221Y-86627384D01*
X137072384Y-86614221D01*
X137128338Y-86538466D01*
X137184899Y-86495556D01*
X137255681Y-86490036D01*
X137318210Y-86523660D01*
X137331040Y-86538467D01*
X137387255Y-86614576D01*
X137387258Y-86614579D01*
X137392850Y-86622150D01*
X137400421Y-86627742D01*
X137402595Y-86629916D01*
X137436621Y-86692228D01*
X137439500Y-86719011D01*
X137439500Y-87432393D01*
X137446914Y-87455210D01*
X137451528Y-87474429D01*
X137455281Y-87498126D01*
X137459784Y-87506963D01*
X137459784Y-87506964D01*
X137466172Y-87519502D01*
X137473736Y-87537763D01*
X137478085Y-87551147D01*
X137478087Y-87551150D01*
X137481151Y-87560581D01*
X137486980Y-87568604D01*
X137495253Y-87579991D01*
X137505577Y-87596837D01*
X137516472Y-87618220D01*
X138361680Y-88463428D01*
X138395706Y-88525740D01*
X138397507Y-88568967D01*
X138394394Y-88592611D01*
X138412999Y-88761135D01*
X138471266Y-88920356D01*
X138475502Y-88926659D01*
X138475502Y-88926660D01*
X138488574Y-88946113D01*
X138565830Y-89061083D01*
X138571442Y-89066190D01*
X138571445Y-89066193D01*
X138685612Y-89170077D01*
X138685616Y-89170080D01*
X138691233Y-89175191D01*
X138697906Y-89178814D01*
X138697910Y-89178817D01*
X138833558Y-89252467D01*
X138833560Y-89252468D01*
X138840235Y-89256092D01*
X138847584Y-89258020D01*
X138996883Y-89297188D01*
X138996885Y-89297188D01*
X139004233Y-89299116D01*
X139090609Y-89300473D01*
X139166161Y-89301660D01*
X139166164Y-89301660D01*
X139173760Y-89301779D01*
X139181165Y-89300083D01*
X139181166Y-89300083D01*
X139241586Y-89286245D01*
X139339029Y-89263928D01*
X139490498Y-89187747D01*
X139619423Y-89077634D01*
X139718361Y-88939947D01*
X139726237Y-88920356D01*
X139778766Y-88789687D01*
X139778767Y-88789685D01*
X139781601Y-88782634D01*
X139805490Y-88614778D01*
X139805645Y-88600000D01*
X139785276Y-88431680D01*
X139725345Y-88273077D01*
X139629312Y-88133349D01*
X139623641Y-88128296D01*
X139508392Y-88025612D01*
X139508388Y-88025610D01*
X139502721Y-88020560D01*
X139352881Y-87941224D01*
X139188441Y-87899919D01*
X139180843Y-87899879D01*
X139180841Y-87899879D01*
X139083216Y-87899368D01*
X139052487Y-87899207D01*
X138984472Y-87878849D01*
X138964052Y-87862304D01*
X138327405Y-87225657D01*
X138293379Y-87163345D01*
X138290500Y-87136562D01*
X138290500Y-86719011D01*
X138310502Y-86650890D01*
X138327405Y-86629916D01*
X138329579Y-86627742D01*
X138337150Y-86622150D01*
X138342742Y-86614579D01*
X138342745Y-86614576D01*
X138398649Y-86538888D01*
X138455210Y-86495977D01*
X138525992Y-86490457D01*
X138588521Y-86524081D01*
X138601351Y-86538888D01*
X138657255Y-86614576D01*
X138657258Y-86614579D01*
X138662850Y-86622150D01*
X138670421Y-86627742D01*
X138764243Y-86697041D01*
X138764246Y-86697042D01*
X138771816Y-86702634D01*
X138899631Y-86747519D01*
X138907277Y-86748242D01*
X138907278Y-86748242D01*
X138913248Y-86748806D01*
X138931166Y-86750500D01*
X139338834Y-86750500D01*
X139356752Y-86748806D01*
X139362722Y-86748242D01*
X139362723Y-86748242D01*
X139370369Y-86747519D01*
X139498184Y-86702634D01*
X139505754Y-86697042D01*
X139505757Y-86697041D01*
X139599579Y-86627742D01*
X139607150Y-86622150D01*
X139612742Y-86614579D01*
X139612745Y-86614576D01*
X139668649Y-86538888D01*
X139725210Y-86495977D01*
X139795992Y-86490457D01*
X139858521Y-86524081D01*
X139871351Y-86538888D01*
X139927255Y-86614576D01*
X139927258Y-86614579D01*
X139932850Y-86622150D01*
X139940421Y-86627742D01*
X140034243Y-86697041D01*
X140034246Y-86697042D01*
X140041816Y-86702634D01*
X140169631Y-86747519D01*
X140177277Y-86748242D01*
X140177278Y-86748242D01*
X140183248Y-86748806D01*
X140201166Y-86750500D01*
X140608834Y-86750500D01*
X140626752Y-86748806D01*
X140632722Y-86748242D01*
X140632723Y-86748242D01*
X140640369Y-86747519D01*
X140768184Y-86702634D01*
X140775754Y-86697042D01*
X140775757Y-86697041D01*
X140869579Y-86627742D01*
X140877150Y-86622150D01*
X140938960Y-86538467D01*
X140952041Y-86520757D01*
X140952042Y-86520754D01*
X140957634Y-86513184D01*
X141002519Y-86385369D01*
X141003251Y-86377631D01*
X141005221Y-86356782D01*
X141005500Y-86353834D01*
X141005500Y-84896166D01*
X141002519Y-84864631D01*
X140957634Y-84736816D01*
X140952042Y-84729246D01*
X140952041Y-84729243D01*
X140882742Y-84635421D01*
X140877150Y-84627850D01*
X140814620Y-84581664D01*
X140775757Y-84552959D01*
X140775754Y-84552958D01*
X140768184Y-84547366D01*
X140660160Y-84509431D01*
X140647608Y-84505023D01*
X140647607Y-84505023D01*
X140640369Y-84502481D01*
X140632731Y-84501759D01*
X140631309Y-84501447D01*
X140569217Y-84467470D01*
X140526466Y-84424719D01*
X140492440Y-84362407D01*
X140490818Y-84317871D01*
X140504909Y-84218863D01*
X140504909Y-84218857D01*
X140505490Y-84214778D01*
X140505645Y-84200000D01*
X140503840Y-84185080D01*
X140495499Y-84116162D01*
X140485276Y-84031680D01*
X140445558Y-83926570D01*
X140428029Y-83880180D01*
X140425345Y-83873077D01*
X140363137Y-83782564D01*
X140333614Y-83739608D01*
X140333613Y-83739607D01*
X140329312Y-83733349D01*
X140323119Y-83727831D01*
X140208392Y-83625612D01*
X140208388Y-83625610D01*
X140202721Y-83620560D01*
X140052881Y-83541224D01*
X139888441Y-83499919D01*
X139880843Y-83499879D01*
X139880841Y-83499879D01*
X139803668Y-83499475D01*
X139718895Y-83499031D01*
X139711508Y-83500805D01*
X139711504Y-83500805D01*
X139568162Y-83535220D01*
X139554032Y-83538612D01*
X139547288Y-83542093D01*
X139547285Y-83542094D01*
X139542089Y-83544776D01*
X139403369Y-83616375D01*
X139397647Y-83621367D01*
X139397645Y-83621368D01*
X139365399Y-83649498D01*
X139275604Y-83727831D01*
X139178113Y-83866547D01*
X139116524Y-84024513D01*
X139094394Y-84192611D01*
X139112838Y-84359673D01*
X139100432Y-84429578D01*
X139052202Y-84481678D01*
X138987599Y-84499500D01*
X138931166Y-84499500D01*
X138913248Y-84501194D01*
X138907278Y-84501758D01*
X138907277Y-84501758D01*
X138899631Y-84502481D01*
X138771816Y-84547366D01*
X138764246Y-84552958D01*
X138764243Y-84552959D01*
X138725380Y-84581664D01*
X138662850Y-84627850D01*
X138657258Y-84635421D01*
X138657255Y-84635424D01*
X138601351Y-84711112D01*
X138544790Y-84754023D01*
X138474008Y-84759543D01*
X138411479Y-84725919D01*
X138398649Y-84711112D01*
X138342745Y-84635424D01*
X138342742Y-84635421D01*
X138337150Y-84627850D01*
X138274620Y-84581664D01*
X138235757Y-84552959D01*
X138235754Y-84552958D01*
X138228184Y-84547366D01*
X138100369Y-84502481D01*
X138092723Y-84501758D01*
X138092722Y-84501758D01*
X138086752Y-84501194D01*
X138068834Y-84499500D01*
X137661166Y-84499500D01*
X137643248Y-84501194D01*
X137637278Y-84501758D01*
X137637277Y-84501758D01*
X137629631Y-84502481D01*
X137501816Y-84547366D01*
X137494246Y-84552958D01*
X137494243Y-84552959D01*
X137455380Y-84581664D01*
X137392850Y-84627850D01*
X137387258Y-84635421D01*
X137387255Y-84635424D01*
X137331040Y-84711533D01*
X137274479Y-84754444D01*
X137203697Y-84759964D01*
X137141168Y-84726340D01*
X137128338Y-84711534D01*
X137072384Y-84635779D01*
X137059221Y-84622616D01*
X136965520Y-84553406D01*
X136949064Y-84544694D01*
X136837521Y-84505523D01*
X136822627Y-84502255D01*
X136801719Y-84500279D01*
X136795808Y-84500000D01*
X136763115Y-84500000D01*
X136747876Y-84504475D01*
X136746671Y-84505865D01*
X136745000Y-84513548D01*
X136443659Y-84513548D01*
X136440525Y-84502877D01*
X136439135Y-84501672D01*
X136431452Y-84500001D01*
X136394196Y-84500001D01*
X136388275Y-84500280D01*
X136367369Y-84502256D01*
X136352484Y-84505521D01*
X136240936Y-84544694D01*
X136224480Y-84553406D01*
X136130779Y-84622616D01*
X136117616Y-84635779D01*
X136048406Y-84729480D01*
X136039694Y-84745936D01*
X136000523Y-84857479D01*
X135997255Y-84872373D01*
X135995279Y-84893281D01*
X135995000Y-84899192D01*
X134702556Y-84899192D01*
X134948528Y-84653220D01*
X134959419Y-84631844D01*
X134969749Y-84614989D01*
X134978021Y-84603604D01*
X134978021Y-84603603D01*
X134983850Y-84595581D01*
X134991264Y-84572763D01*
X134998827Y-84554502D01*
X135009719Y-84533126D01*
X135011270Y-84523335D01*
X135011272Y-84523328D01*
X135013473Y-84509431D01*
X135018087Y-84490212D01*
X135022436Y-84476827D01*
X135022437Y-84476820D01*
X135025500Y-84467393D01*
X135025500Y-84051288D01*
X135045502Y-83983167D01*
X135099158Y-83936674D01*
X135169432Y-83926570D01*
X135211620Y-83940556D01*
X135233556Y-83952466D01*
X135233559Y-83952467D01*
X135240235Y-83956092D01*
X135247584Y-83958020D01*
X135396883Y-83997188D01*
X135396885Y-83997188D01*
X135404233Y-83999116D01*
X135490609Y-84000473D01*
X135566161Y-84001660D01*
X135566164Y-84001660D01*
X135573760Y-84001779D01*
X135581165Y-84000083D01*
X135581166Y-84000083D01*
X135641586Y-83986245D01*
X135739029Y-83963928D01*
X135890498Y-83887747D01*
X136019423Y-83777634D01*
X136118361Y-83639947D01*
X136159811Y-83536839D01*
X136178766Y-83489687D01*
X136178767Y-83489685D01*
X136181601Y-83482634D01*
X136188877Y-83431511D01*
X136204909Y-83318862D01*
X136204909Y-83318859D01*
X136205490Y-83314778D01*
X136205645Y-83300000D01*
X136201796Y-83268192D01*
X136213469Y-83198162D01*
X136237788Y-83163960D01*
X136461597Y-82940151D01*
X144595585Y-82940151D01*
X144595760Y-82944602D01*
X144602763Y-83122820D01*
X144606152Y-83209083D01*
X144654505Y-83473843D01*
X144739682Y-83729148D01*
X144741674Y-83733135D01*
X144741675Y-83733137D01*
X144855290Y-83960516D01*
X144859981Y-83969905D01*
X145013003Y-84191309D01*
X145034698Y-84214778D01*
X145192679Y-84385682D01*
X145192684Y-84385687D01*
X145195695Y-84388944D01*
X145404411Y-84558866D01*
X145408229Y-84561165D01*
X145408231Y-84561166D01*
X145572788Y-84660237D01*
X145634987Y-84697684D01*
X145639082Y-84699418D01*
X145639084Y-84699419D01*
X145878721Y-84800892D01*
X145878728Y-84800894D01*
X145882822Y-84802628D01*
X145978710Y-84828052D01*
X146138675Y-84870467D01*
X146138680Y-84870468D01*
X146142972Y-84871606D01*
X146147381Y-84872128D01*
X146147387Y-84872129D01*
X146296289Y-84889752D01*
X146410245Y-84903240D01*
X146679310Y-84896899D01*
X146701047Y-84893281D01*
X146940406Y-84853441D01*
X146940410Y-84853440D01*
X146944796Y-84852710D01*
X146949037Y-84851369D01*
X146949040Y-84851368D01*
X147197162Y-84772897D01*
X147197164Y-84772896D01*
X147201408Y-84771554D01*
X147205419Y-84769628D01*
X147205424Y-84769626D01*
X147440006Y-84656981D01*
X147440007Y-84656980D01*
X147444025Y-84655051D01*
X147447731Y-84652575D01*
X147664098Y-84508004D01*
X147664102Y-84508001D01*
X147667806Y-84505526D01*
X147671123Y-84502555D01*
X147671127Y-84502552D01*
X147864970Y-84328931D01*
X147868286Y-84325961D01*
X147923180Y-84260657D01*
X148038601Y-84123348D01*
X148038606Y-84123342D01*
X148041465Y-84119940D01*
X148183887Y-83891572D01*
X148188924Y-83880180D01*
X148236984Y-83771470D01*
X148292712Y-83645416D01*
X148365767Y-83386382D01*
X148376814Y-83304134D01*
X148401168Y-83122820D01*
X148401169Y-83122812D01*
X148401595Y-83119638D01*
X148401696Y-83116427D01*
X148405254Y-83003222D01*
X148405254Y-83003217D01*
X148405355Y-83000000D01*
X148386347Y-82731533D01*
X148379916Y-82701660D01*
X148342694Y-82528778D01*
X148329700Y-82468423D01*
X148310188Y-82415531D01*
X148238090Y-82220101D01*
X148238089Y-82220099D01*
X148236547Y-82215919D01*
X148205249Y-82157913D01*
X148110857Y-81982976D01*
X148108744Y-81979060D01*
X147948843Y-81762571D01*
X147760034Y-81570772D01*
X147694165Y-81520502D01*
X147597907Y-81447041D01*
X147546083Y-81407490D01*
X147492964Y-81377742D01*
X147315147Y-81278159D01*
X147315144Y-81278158D01*
X147311261Y-81275983D01*
X147307122Y-81274382D01*
X147307114Y-81274378D01*
X147121566Y-81202596D01*
X147060251Y-81178875D01*
X147055926Y-81177872D01*
X147055921Y-81177871D01*
X146903819Y-81142616D01*
X146798063Y-81118103D01*
X146529928Y-81094880D01*
X146525493Y-81095124D01*
X146525489Y-81095124D01*
X146421065Y-81100871D01*
X146261196Y-81109669D01*
X146256833Y-81110537D01*
X146256832Y-81110537D01*
X146001596Y-81161307D01*
X146001594Y-81161308D01*
X145997228Y-81162176D01*
X145743292Y-81251352D01*
X145504455Y-81375418D01*
X145500840Y-81378001D01*
X145500834Y-81378005D01*
X145455793Y-81410192D01*
X145285481Y-81531899D01*
X145282254Y-81534977D01*
X145282252Y-81534979D01*
X145095948Y-81712704D01*
X145090740Y-81717672D01*
X144924118Y-81929032D01*
X144866196Y-82028752D01*
X144791173Y-82157913D01*
X144791170Y-82157919D01*
X144788939Y-82161760D01*
X144787269Y-82165883D01*
X144696028Y-82391147D01*
X144687900Y-82411213D01*
X144686829Y-82415526D01*
X144686827Y-82415531D01*
X144643239Y-82591006D01*
X144623017Y-82672414D01*
X144595585Y-82940151D01*
X136461597Y-82940151D01*
X136943528Y-82458220D01*
X136954423Y-82436837D01*
X136964747Y-82419991D01*
X136967987Y-82415531D01*
X136978849Y-82400581D01*
X136981913Y-82391150D01*
X136981915Y-82391147D01*
X136986264Y-82377763D01*
X136993828Y-82359502D01*
X137000216Y-82346964D01*
X137000216Y-82346963D01*
X137004719Y-82338126D01*
X137008472Y-82314429D01*
X137013086Y-82295210D01*
X137020500Y-82272393D01*
X137020500Y-81469011D01*
X137040502Y-81400890D01*
X137057405Y-81379916D01*
X137059579Y-81377742D01*
X137067150Y-81372150D01*
X137072742Y-81364579D01*
X137072745Y-81364576D01*
X137128649Y-81288888D01*
X137185210Y-81245977D01*
X137255992Y-81240457D01*
X137318521Y-81274081D01*
X137331351Y-81288888D01*
X137387255Y-81364576D01*
X137387258Y-81364579D01*
X137392850Y-81372150D01*
X137400421Y-81377742D01*
X137494243Y-81447041D01*
X137494246Y-81447042D01*
X137501816Y-81452634D01*
X137629631Y-81497519D01*
X137637277Y-81498242D01*
X137637278Y-81498242D01*
X137643248Y-81498806D01*
X137661166Y-81500500D01*
X137746562Y-81500500D01*
X137814683Y-81520502D01*
X137835657Y-81537405D01*
X138263543Y-81965291D01*
X138297569Y-82027603D01*
X138299687Y-82040559D01*
X138301215Y-82054396D01*
X138312999Y-82161135D01*
X138371266Y-82320356D01*
X138375502Y-82326659D01*
X138375502Y-82326660D01*
X138388574Y-82346113D01*
X138465830Y-82461083D01*
X138471442Y-82466190D01*
X138471445Y-82466193D01*
X138585612Y-82570077D01*
X138585616Y-82570080D01*
X138591233Y-82575191D01*
X138597906Y-82578814D01*
X138597910Y-82578817D01*
X138733558Y-82652467D01*
X138733560Y-82652468D01*
X138740235Y-82656092D01*
X138747584Y-82658020D01*
X138896883Y-82697188D01*
X138896885Y-82697188D01*
X138904233Y-82699116D01*
X138990609Y-82700473D01*
X139066161Y-82701660D01*
X139066164Y-82701660D01*
X139073760Y-82701779D01*
X139081165Y-82700083D01*
X139081166Y-82700083D01*
X139182629Y-82676845D01*
X139239029Y-82663928D01*
X139390498Y-82587747D01*
X139519423Y-82477634D01*
X139618361Y-82339947D01*
X139629105Y-82313222D01*
X139678768Y-82189681D01*
X139681601Y-82182634D01*
X139693929Y-82096013D01*
X139723330Y-82031390D01*
X139729577Y-82024671D01*
X140216843Y-81537405D01*
X140279155Y-81503379D01*
X140305938Y-81500500D01*
X140608834Y-81500500D01*
X140626752Y-81498806D01*
X140632722Y-81498242D01*
X140632723Y-81498242D01*
X140640369Y-81497519D01*
X140768184Y-81452634D01*
X140775754Y-81447042D01*
X140775757Y-81447041D01*
X140869579Y-81377742D01*
X140877150Y-81372150D01*
X140938649Y-81288888D01*
X140952041Y-81270757D01*
X140952042Y-81270754D01*
X140957634Y-81263184D01*
X141002519Y-81135369D01*
X141005500Y-81103834D01*
X141005500Y-79646166D01*
X141002519Y-79614631D01*
X140957634Y-79486816D01*
X140952042Y-79479246D01*
X140952041Y-79479243D01*
X140882742Y-79385421D01*
X140877150Y-79377850D01*
X140860206Y-79365335D01*
X140775757Y-79302959D01*
X140775754Y-79302958D01*
X140768184Y-79297366D01*
X140640369Y-79252481D01*
X140632723Y-79251758D01*
X140632722Y-79251758D01*
X140626752Y-79251194D01*
X140608834Y-79249500D01*
X140201166Y-79249500D01*
X140183248Y-79251194D01*
X140177278Y-79251758D01*
X140177277Y-79251758D01*
X140169631Y-79252481D01*
X140041816Y-79297366D01*
X140034246Y-79302958D01*
X140034243Y-79302959D01*
X139949794Y-79365335D01*
X139932850Y-79377850D01*
X139927258Y-79385421D01*
X139927255Y-79385424D01*
X139871351Y-79461112D01*
X139814790Y-79504023D01*
X139744008Y-79509543D01*
X139681479Y-79475919D01*
X139668649Y-79461112D01*
X139612745Y-79385424D01*
X139612742Y-79385421D01*
X139607150Y-79377850D01*
X139590206Y-79365335D01*
X139505757Y-79302959D01*
X139505754Y-79302958D01*
X139498184Y-79297366D01*
X139370369Y-79252481D01*
X139362723Y-79251758D01*
X139362722Y-79251758D01*
X139356752Y-79251194D01*
X139338834Y-79249500D01*
X138931166Y-79249500D01*
X138913248Y-79251194D01*
X138907278Y-79251758D01*
X138907277Y-79251758D01*
X138899631Y-79252481D01*
X138771816Y-79297366D01*
X138764246Y-79302958D01*
X138764243Y-79302959D01*
X138679794Y-79365335D01*
X138662850Y-79377850D01*
X138657258Y-79385421D01*
X138657255Y-79385424D01*
X138601351Y-79461112D01*
X138544790Y-79504023D01*
X138474008Y-79509543D01*
X138411479Y-79475919D01*
X138398649Y-79461112D01*
X138342745Y-79385424D01*
X138342742Y-79385421D01*
X138337150Y-79377850D01*
X138320206Y-79365335D01*
X138235757Y-79302959D01*
X138235754Y-79302958D01*
X138228184Y-79297366D01*
X138100369Y-79252481D01*
X138092723Y-79251758D01*
X138092722Y-79251758D01*
X138086752Y-79251194D01*
X138068834Y-79249500D01*
X137661166Y-79249500D01*
X137643248Y-79251194D01*
X137637278Y-79251758D01*
X137637277Y-79251758D01*
X137629631Y-79252481D01*
X137501816Y-79297366D01*
X137494246Y-79302958D01*
X137494243Y-79302959D01*
X137409794Y-79365335D01*
X137392850Y-79377850D01*
X137387258Y-79385421D01*
X137387255Y-79385424D01*
X137331351Y-79461112D01*
X137274790Y-79504023D01*
X137204008Y-79509543D01*
X137141479Y-79475919D01*
X137128649Y-79461112D01*
X137072745Y-79385424D01*
X137072742Y-79385421D01*
X137067150Y-79377850D01*
X137050206Y-79365335D01*
X136965757Y-79302959D01*
X136965754Y-79302958D01*
X136958184Y-79297366D01*
X136830369Y-79252481D01*
X136822723Y-79251758D01*
X136822722Y-79251758D01*
X136816752Y-79251194D01*
X136798834Y-79249500D01*
X136391166Y-79249500D01*
X136373248Y-79251194D01*
X136367278Y-79251758D01*
X136367277Y-79251758D01*
X136359631Y-79252481D01*
X136231816Y-79297366D01*
X136224246Y-79302958D01*
X136224243Y-79302959D01*
X136139794Y-79365335D01*
X136122850Y-79377850D01*
X136117258Y-79385421D01*
X136047959Y-79479243D01*
X136047958Y-79479246D01*
X136042366Y-79486816D01*
X135997481Y-79614631D01*
X135994500Y-79646166D01*
X135994500Y-81103834D01*
X135997481Y-81135369D01*
X136042366Y-81263184D01*
X136047958Y-81270754D01*
X136047959Y-81270757D01*
X136061351Y-81288888D01*
X136122850Y-81372150D01*
X136130421Y-81377742D01*
X136132595Y-81379916D01*
X136166621Y-81442228D01*
X136169500Y-81469011D01*
X136169500Y-81976562D01*
X136149498Y-82044683D01*
X136132595Y-82065657D01*
X135635460Y-82562792D01*
X135573148Y-82596818D01*
X135545705Y-82599695D01*
X135490253Y-82599405D01*
X135418895Y-82599031D01*
X135411508Y-82600805D01*
X135411504Y-82600805D01*
X135268162Y-82635220D01*
X135254032Y-82638612D01*
X135247288Y-82642093D01*
X135247285Y-82642094D01*
X135209290Y-82661705D01*
X135139582Y-82675174D01*
X135073659Y-82648819D01*
X135032449Y-82591006D01*
X135025500Y-82549739D01*
X135025500Y-78328438D01*
X135045502Y-78260317D01*
X135062405Y-78239343D01*
X135864930Y-77436818D01*
X135927242Y-77402792D01*
X135956002Y-77399929D01*
X136000647Y-77400631D01*
X136066162Y-77401660D01*
X136066165Y-77401660D01*
X136073760Y-77401779D01*
X136081165Y-77400083D01*
X136081166Y-77400083D01*
X136141586Y-77386245D01*
X136239029Y-77363928D01*
X136390498Y-77287747D01*
X136519423Y-77177634D01*
X136618361Y-77039947D01*
X136681601Y-76882634D01*
X136692996Y-76802565D01*
X136704909Y-76718862D01*
X136704909Y-76718859D01*
X136705490Y-76714778D01*
X136705645Y-76700000D01*
X136703840Y-76685080D01*
X136686188Y-76539220D01*
X136685276Y-76531680D01*
X136625345Y-76373077D01*
X136529312Y-76233349D01*
X136517514Y-76222837D01*
X136408392Y-76125612D01*
X136408388Y-76125610D01*
X136402721Y-76120560D01*
X136252881Y-76041224D01*
X136088441Y-75999919D01*
X136080843Y-75999879D01*
X136080841Y-75999879D01*
X136003668Y-75999475D01*
X135918895Y-75999031D01*
X135911508Y-76000805D01*
X135911504Y-76000805D01*
X135768162Y-76035220D01*
X135754032Y-76038612D01*
X135747288Y-76042093D01*
X135747285Y-76042094D01*
X135742089Y-76044776D01*
X135603369Y-76116375D01*
X135475604Y-76227831D01*
X135378113Y-76366547D01*
X135316524Y-76524513D01*
X135315532Y-76532046D01*
X135315532Y-76532047D01*
X135310465Y-76570539D01*
X135294394Y-76692611D01*
X135295228Y-76700163D01*
X135298815Y-76732661D01*
X135286409Y-76802565D01*
X135262671Y-76835581D01*
X134251472Y-77846780D01*
X134240577Y-77868163D01*
X134230253Y-77885009D01*
X134216151Y-77904419D01*
X134213087Y-77913850D01*
X134213085Y-77913853D01*
X134208736Y-77927237D01*
X134201172Y-77945498D01*
X134190281Y-77966874D01*
X134188730Y-77976668D01*
X134186528Y-77990570D01*
X134181914Y-78009790D01*
X134174500Y-78032607D01*
X134174500Y-84171562D01*
X134154498Y-84239683D01*
X134137595Y-84260657D01*
X133026472Y-85371780D01*
X133015577Y-85393163D01*
X133005253Y-85410009D01*
X132991151Y-85429419D01*
X132988087Y-85438850D01*
X132988085Y-85438853D01*
X132983736Y-85452237D01*
X132976172Y-85470498D01*
X132969784Y-85483036D01*
X132965281Y-85491874D01*
X132963730Y-85501668D01*
X132961528Y-85515570D01*
X132956914Y-85534790D01*
X132949500Y-85557607D01*
X127600662Y-85557607D01*
X127521782Y-85217294D01*
X127520348Y-85210181D01*
X127465883Y-84893218D01*
X127412346Y-84581649D01*
X127411326Y-84574480D01*
X127407909Y-84544247D01*
X127339688Y-83940801D01*
X127339081Y-83933583D01*
X127336747Y-83891159D01*
X127317684Y-83544776D01*
X127304038Y-83296807D01*
X127303848Y-83289553D01*
X127304763Y-82940151D01*
X128595585Y-82940151D01*
X128595760Y-82944602D01*
X128602763Y-83122820D01*
X128606152Y-83209083D01*
X128654505Y-83473843D01*
X128739682Y-83729148D01*
X128741674Y-83733135D01*
X128741675Y-83733137D01*
X128855290Y-83960516D01*
X128859981Y-83969905D01*
X129013003Y-84191309D01*
X129034698Y-84214778D01*
X129192679Y-84385682D01*
X129192684Y-84385687D01*
X129195695Y-84388944D01*
X129404411Y-84558866D01*
X129408229Y-84561165D01*
X129408231Y-84561166D01*
X129572788Y-84660237D01*
X129634987Y-84697684D01*
X129639082Y-84699418D01*
X129639084Y-84699419D01*
X129878721Y-84800892D01*
X129878728Y-84800894D01*
X129882822Y-84802628D01*
X129978710Y-84828052D01*
X130138675Y-84870467D01*
X130138680Y-84870468D01*
X130142972Y-84871606D01*
X130147381Y-84872128D01*
X130147387Y-84872129D01*
X130296289Y-84889752D01*
X130410245Y-84903240D01*
X130679310Y-84896899D01*
X130701047Y-84893281D01*
X130940406Y-84853441D01*
X130940410Y-84853440D01*
X130944796Y-84852710D01*
X130949037Y-84851369D01*
X130949040Y-84851368D01*
X131197162Y-84772897D01*
X131197164Y-84772896D01*
X131201408Y-84771554D01*
X131205419Y-84769628D01*
X131205424Y-84769626D01*
X131440006Y-84656981D01*
X131440007Y-84656980D01*
X131444025Y-84655051D01*
X131447731Y-84652575D01*
X131664098Y-84508004D01*
X131664102Y-84508001D01*
X131667806Y-84505526D01*
X131671123Y-84502555D01*
X131671127Y-84502552D01*
X131864970Y-84328931D01*
X131868286Y-84325961D01*
X131923180Y-84260657D01*
X132038601Y-84123348D01*
X132038606Y-84123342D01*
X132041465Y-84119940D01*
X132183887Y-83891572D01*
X132188924Y-83880180D01*
X132236984Y-83771470D01*
X132292712Y-83645416D01*
X132365767Y-83386382D01*
X132376814Y-83304134D01*
X132401168Y-83122820D01*
X132401169Y-83122812D01*
X132401595Y-83119638D01*
X132401696Y-83116427D01*
X132405254Y-83003222D01*
X132405254Y-83003217D01*
X132405355Y-83000000D01*
X132386347Y-82731533D01*
X132379916Y-82701660D01*
X132342694Y-82528778D01*
X132329700Y-82468423D01*
X132310188Y-82415531D01*
X132238090Y-82220101D01*
X132238089Y-82220099D01*
X132236547Y-82215919D01*
X132205249Y-82157913D01*
X132110857Y-81982976D01*
X132108744Y-81979060D01*
X131948843Y-81762571D01*
X131760034Y-81570772D01*
X131694165Y-81520502D01*
X131597907Y-81447041D01*
X131546083Y-81407490D01*
X131492964Y-81377742D01*
X131315147Y-81278159D01*
X131315144Y-81278158D01*
X131311261Y-81275983D01*
X131307122Y-81274382D01*
X131307114Y-81274378D01*
X131121566Y-81202596D01*
X131060251Y-81178875D01*
X131055926Y-81177872D01*
X131055921Y-81177871D01*
X130903819Y-81142616D01*
X130798063Y-81118103D01*
X130529928Y-81094880D01*
X130525493Y-81095124D01*
X130525489Y-81095124D01*
X130421065Y-81100871D01*
X130261196Y-81109669D01*
X130256833Y-81110537D01*
X130256832Y-81110537D01*
X130001596Y-81161307D01*
X130001594Y-81161308D01*
X129997228Y-81162176D01*
X129743292Y-81251352D01*
X129504455Y-81375418D01*
X129500840Y-81378001D01*
X129500834Y-81378005D01*
X129455793Y-81410192D01*
X129285481Y-81531899D01*
X129282254Y-81534977D01*
X129282252Y-81534979D01*
X129095948Y-81712704D01*
X129090740Y-81717672D01*
X128924118Y-81929032D01*
X128866196Y-82028752D01*
X128791173Y-82157913D01*
X128791170Y-82157919D01*
X128788939Y-82161760D01*
X128787269Y-82165883D01*
X128696028Y-82391147D01*
X128687900Y-82411213D01*
X128686829Y-82415526D01*
X128686827Y-82415531D01*
X128643239Y-82591006D01*
X128623017Y-82672414D01*
X128595585Y-82940151D01*
X127304763Y-82940151D01*
X127305518Y-82651827D01*
X127305746Y-82644575D01*
X127341325Y-82054396D01*
X127344122Y-82007993D01*
X127344766Y-82000781D01*
X127345264Y-81996580D01*
X127419725Y-81367459D01*
X127420783Y-81360296D01*
X127532077Y-80732327D01*
X127533541Y-80725258D01*
X127680793Y-80104759D01*
X127682671Y-80097750D01*
X127865394Y-79486766D01*
X127867672Y-79479877D01*
X128085263Y-78880422D01*
X128087934Y-78873675D01*
X128339676Y-78287731D01*
X128342731Y-78281150D01*
X128627779Y-77710677D01*
X128631208Y-77704282D01*
X128948628Y-77151157D01*
X128952420Y-77144970D01*
X129301145Y-76611046D01*
X129305286Y-76605088D01*
X129684170Y-76092120D01*
X129688647Y-76086410D01*
X130096430Y-75596104D01*
X130101228Y-75590661D01*
X130536566Y-75124634D01*
X130541670Y-75119476D01*
X131003119Y-74679276D01*
X131008512Y-74674421D01*
X131494515Y-74261530D01*
X131500178Y-74256993D01*
X132009153Y-73872757D01*
X132015067Y-73868554D01*
X132421521Y-73596969D01*
X132545332Y-73514241D01*
X132551451Y-73510403D01*
X133101244Y-73187196D01*
X133107571Y-73183718D01*
X133675057Y-72892696D01*
X133681598Y-72889577D01*
X134264881Y-72631709D01*
X134271563Y-72628982D01*
X134589274Y-72509879D01*
X134868733Y-72405116D01*
X134875598Y-72402766D01*
X135484621Y-72213659D01*
X135491610Y-72211707D01*
X135811828Y-72132164D01*
X136110544Y-72057963D01*
X136117609Y-72056423D01*
X136744382Y-71938559D01*
X136751523Y-71937428D01*
X137177118Y-71882530D01*
X137384031Y-71855841D01*
X137391251Y-71855121D01*
X138027370Y-71810081D01*
X138034620Y-71809777D01*
X138344936Y-71805715D01*
X138672310Y-71801429D01*
X138679531Y-71801543D01*
G37*
%TD.AperFunction*%
%TD*%
M02*
